# Export of Greybox
# from Aaro4130 OBJ Exporter v2.0
mtllib BookCase.mtl
g Cube
v 16.53631 -0.91 11.61462
v 16.08537 -0.91 12.01042
v 16.53631 2.09 11.61462
v 16.08537 2.09 12.01042
v 16.08537 -0.91 12.01042
v 13.44673 -0.91 9.004166
v 16.08537 2.09 12.01042
v 13.44673 2.09 9.004166
v 13.44673 -0.91 9.004166
v 13.89767 -0.91 8.608369
v 13.44673 2.09 9.004166
v 13.89767 2.09 8.608369
v 13.89767 -0.91 8.608369
v 16.53631 -0.91 11.61462
v 13.89767 2.09 8.608369
v 16.53631 2.09 11.61462
v 16.53631 2.09 11.61462
v 16.08537 2.09 12.01042
v 13.89767 2.09 8.608369
v 13.44673 2.09 9.004166
v 13.89767 -0.91 8.608369
v 13.44673 -0.91 9.004166
v 16.53631 -0.91 11.61462
v 16.08537 -0.91 12.01042
vn 0.3808552 0 0.4339155
vn 0.3808552 0 0.4339155
vn 0.3808552 0 0.4339155
vn 0.3808552 0 0.4339155
vn -0.4339155 0 0.3808552
vn -0.4339155 0 0.3808552
vn -0.4339155 0 0.3808552
vn -0.4339155 0 0.3808552
vn -0.3808552 0 -0.4339155
vn -0.3808552 0 -0.4339155
vn -0.3808552 0 -0.4339155
vn -0.3808552 0 -0.4339155
vn 0.4339155 0 -0.3808552
vn 0.4339155 0 -0.3808552
vn 0.4339155 0 -0.3808552
vn 0.4339155 0 -0.3808552
vn 0 0.5773503 0
vn 0 0.5773503 0
vn 0 0.5773503 0
vn 0 0.5773503 0
vn 0 -0.5773503 0
vn 0 -0.5773503 0
vn 0 -0.5773503 0
vn 0 -0.5773503 0
vt 0 0
vt -0.6 0
vt 0 3
vt -0.6 3
vt 0 0
vt -4 0
vt 0 3
vt -4 3
vt 0.6 0
vt 0 0
vt 0.6 3
vt 0 3
vt 4 0
vt 0 0
vt 4 3
vt 0 3
vt 0 0
vt 0.6 0
vt 0 -4
vt 0.6 -4
vt 0 -4
vt -0.6 -4
vt 0 0
vt -0.6 0
usemtl Default_Prototype
f 3/3/3 2/2/2 1/1/1
f 3/3/3 4/4/4 2/2/2
f 7/7/7 6/6/6 5/5/5
f 7/7/7 8/8/8 6/6/6
f 11/11/11 10/10/10 9/9/9
f 11/11/11 12/12/12 10/10/10
f 15/15/15 14/14/14 13/13/13
f 15/15/15 16/16/16 14/14/14
f 19/19/19 18/18/18 17/17/17
f 19/19/19 20/20/20 18/18/18
f 23/23/23 22/22/22 21/21/21
f 23/23/23 24/24/24 22/22/22
