# Export of Greybox
# from Aaro4130 OBJ Exporter v2.0
mtllib Lamp.mtl
g Cube
v 6.108 -0.852 7.455999
v 6.45129 -0.852 7.661308
v 6.108 -0.712 7.455999
v 6.45129 -0.712 7.661308
v 6.45129 -0.852 7.661308
v 6.379432 -0.852 7.78146
v 6.45129 -0.712 7.661308
v 6.379432 -0.712 7.78146
v 6.379432 -0.852 7.78146
v 6.036142 -0.852 7.576151
v 6.379432 -0.712 7.78146
v 6.036142 -0.712 7.576151
v 6.036142 -0.852 7.576151
v 6.108 -0.852 7.455999
v 6.036142 -0.712 7.576151
v 6.108 -0.712 7.455999
v 6.108 -0.712 7.455999
v 6.45129 -0.712 7.661308
v 6.036142 -0.712 7.576151
v 6.379432 -0.712 7.78146
v 6.036142 -0.852 7.576151
v 6.379432 -0.852 7.78146
v 6.108 -0.852 7.455999
v 6.45129 -0.852 7.661308
vn 0.2963378 0 -0.495497
vn 0.2963378 0 -0.495497
vn 0.2963378 0 -0.495497
vn 0.2963378 0 -0.495497
vn 0.4954971 0 0.2963378
vn 0.4954971 0 0.2963378
vn 0.4954971 0 0.2963378
vn 0.4954971 0 0.2963378
vn -0.2963378 0 0.495497
vn -0.2963378 0 0.495497
vn -0.2963378 0 0.495497
vn -0.2963378 0 0.495497
vn -0.4954971 0 -0.2963378
vn -0.4954971 0 -0.2963378
vn -0.4954971 0 -0.2963378
vn -0.4954971 0 -0.2963378
vn 0 0.5773501 0
vn 0 0.5773501 0
vn 0 0.5773501 0
vn 0 0.5773501 0
vn 0 -0.5773501 0
vn 0 -0.5773501 0
vn 0 -0.5773501 0
vn 0 -0.5773501 0
vt 0 0
vt -0.4 0
vt 0 0.14
vt -0.4 0.14
vt 0 0
vt -0.14 0
vt 0 0.14
vt -0.14 0.14
vt 0.4 0
vt 0 0
vt 0.4 0.14
vt 0 0.14
vt 0.14 0
vt 0 0
vt 0.14 0.14
vt 0 0.14
vt 0 0
vt 0.4 0
vt 0 -0.14
vt 0.4 -0.14
vt 0 -0.14
vt -0.4 -0.14
vt 0 0
vt -0.4 0
usemtl Default_Prototype
f 3/3/3 2/2/2 1/1/1
f 3/3/3 4/4/4 2/2/2
f 7/7/7 6/6/6 5/5/5
f 7/7/7 8/8/8 6/6/6
f 11/11/11 10/10/10 9/9/9
f 11/11/11 12/12/12 10/10/10
f 15/15/15 14/14/14 13/13/13
f 15/15/15 16/16/16 14/14/14
f 19/19/19 18/18/18 17/17/17
f 19/19/19 20/20/20 18/18/18
f 23/23/23 22/22/22 21/21/21
f 23/23/23 24/24/24 22/22/22
