# Export of Greybox
# from Aaro4130 OBJ Exporter v2.0
mtllib Side Table.mtl
g Cube
v -4.507685 -1 15.95662
v -3.860944 -1 16.96743
v -4.507685 0 15.95662
v -3.860944 0 16.96743
v -3.860944 -1 16.96743
v -4.282113 -1 17.2369
v -3.860944 0 16.96743
v -4.282113 0 17.2369
v -4.282113 -1 17.2369
v -4.928854 -1 16.2261
v -4.282113 0 17.2369
v -4.928854 0 16.2261
v -4.928854 -1 16.2261
v -4.507685 -1 15.95662
v -4.928854 0 16.2261
v -4.507685 0 15.95662
v -4.507685 0 15.95662
v -3.860944 0 16.96743
v -4.928854 0 16.2261
v -4.282113 0 17.2369
v -4.928854 -1 16.2261
v -4.282113 -1 17.2369
v -4.507685 -1 15.95662
v -3.860944 -1 16.96743
vn 0.4863236 0 -0.3111635
vn 0.4863236 0 -0.3111635
vn 0.4863236 0 -0.3111635
vn 0.4863236 0 -0.3111635
vn 0.3111635 0 0.4863236
vn 0.3111635 0 0.4863236
vn 0.3111635 0 0.4863236
vn 0.3111635 0 0.4863236
vn -0.4863236 0 0.3111635
vn -0.4863236 0 0.3111635
vn -0.4863236 0 0.3111635
vn -0.4863236 0 0.3111635
vn -0.3111635 0 -0.4863236
vn -0.3111635 0 -0.4863236
vn -0.3111635 0 -0.4863236
vn -0.3111635 0 -0.4863236
vn 0 0.5773503 0
vn 0 0.5773503 0
vn 0 0.5773503 0
vn 0 0.5773503 0
vn 0 -0.5773503 0
vn 0 -0.5773503 0
vn 0 -0.5773503 0
vn 0 -0.5773503 0
vt 0 0
vt -1.2 0
vt 0 1
vt -1.2 1
vt 0 0
vt -0.5 0
vt 0 1
vt -0.5 1
vt 1.2 0
vt 0 0
vt 1.2 1
vt 0 1
vt 0.5 0
vt 0 0
vt 0.5 1
vt 0 1
vt 0 0
vt 1.2 0
vt 0 -0.5
vt 1.2 -0.5
vt 0 -0.5
vt -1.2 -0.5
vt 0 0
vt -1.2 0
usemtl Default_Prototype
f 3/3/3 2/2/2 1/1/1
f 3/3/3 4/4/4 2/2/2
f 7/7/7 6/6/6 5/5/5
f 7/7/7 8/8/8 6/6/6
f 11/11/11 10/10/10 9/9/9
f 11/11/11 12/12/12 10/10/10
f 15/15/15 14/14/14 13/13/13
f 15/15/15 16/16/16 14/14/14
f 19/19/19 18/18/18 17/17/17
f 19/19/19 20/20/20 18/18/18
f 23/23/23 22/22/22 21/21/21
f 23/23/23 24/24/24 22/22/22
