# Export of Greybox
# from Aaro4130 OBJ Exporter v2.0
mtllib Window.mtl
g WindowFrame-004-Thick-With-Ledge
v -4.510116 -0.2333551 9.008834
v -4.260116 -0.2333551 9.008834
v -4.260116 -0.2333551 8.345098
v -4.510116 -0.2333551 8.345098
v -4.510116 -0.233355 5.822901
v -4.260116 -0.233355 5.822901
v -4.260116 -0.233355 5.159165
v -4.510116 -0.233355 5.159165
v -4.510116 1.660377 9.008835
v -4.510116 1.660377 8.345098
v -4.260116 1.660377 8.345098
v -4.260116 1.660377 9.008835
v -4.260116 1.660377 5.822901
v -4.510116 1.660377 5.822901
v -4.260116 1.660377 5.159165
v -4.510116 1.660377 5.159165
v -4.260116 -0.2333551 9.008834
v -4.510116 -0.2333551 9.008834
v -4.510116 -0.0754723 9.008834
v -4.260116 -0.0754723 9.008834
v -4.260116 -0.03601965 9.008834
v -4.510116 -0.03601965 9.008834
v -4.260116 1.463113 9.008835
v -4.510116 1.463113 9.008835
v -4.260116 1.660377 9.008835
v -4.510116 1.660377 9.008835
v -4.260116 -0.07547238 8.345098
v -4.260116 -0.2333551 8.345098
v -4.260116 -0.2333551 9.008834
v -4.260116 -0.0754723 9.008834
v -4.260116 -0.07547235 8.477845
v -4.260116 -0.07547221 5.822901
v -4.260116 -0.233355 5.822901
v -4.260116 -0.07547224 5.690154
v -4.260116 -0.07547224 5.159165
v -4.260116 -0.233355 5.159165
v -4.260116 -0.03601947 5.159165
v -4.260116 -0.0360195 5.690154
v -4.260116 1.463113 5.159165
v -4.260116 -0.03601944 5.822901
v -4.260116 1.463113 5.822901
v -4.260116 1.660377 5.159165
v -4.260116 1.660377 5.822901
v -4.260116 1.660377 8.345098
v -4.260116 1.463113 8.345098
v -4.260116 1.463113 9.008835
v -4.260116 1.660377 9.008835
v -4.260116 -0.03601965 9.008834
v -4.260116 -0.03601962 8.477845
v -4.260116 -0.03601965 8.345098
v -4.510116 -0.0754723 9.008834
v -4.510116 -0.2333551 9.008834
v -4.510116 -0.2333551 8.345098
v -4.510116 -0.07547238 8.345098
v -4.510116 -0.07547235 8.477845
v -4.510116 -0.233355 5.822901
v -4.510116 -0.07547221 5.822901
v -4.510116 -0.233355 5.159165
v -4.510116 -0.07547224 5.690154
v -4.510116 -0.07547224 5.159165
v -4.510116 -0.03601965 9.008834
v -4.510116 -0.03601962 8.477845
v -4.510116 1.463113 9.008835
v -4.510116 1.463113 8.345098
v -4.510116 1.660377 9.008835
v -4.510116 1.660377 8.345098
v -4.510116 1.660377 5.822901
v -4.510116 1.463113 5.822901
v -4.510116 1.463113 5.159165
v -4.510116 1.660377 5.159165
v -4.510116 -0.03601965 8.345098
v -4.510116 -0.03601944 5.822901
v -4.510116 -0.03601947 5.159165
v -4.510116 -0.0360195 5.690154
v -4.510116 -0.233355 5.159165
v -4.260116 -0.233355 5.159165
v -4.260116 -0.07547224 5.159165
v -4.510116 -0.07547224 5.159165
v -4.510116 -0.03601947 5.159165
v -4.260116 -0.03601947 5.159165
v -4.510116 1.463113 5.159165
v -4.260116 1.463113 5.159165
v -4.510116 1.660377 5.159165
v -4.260116 1.660377 5.159165
v -4.260116 1.463113 8.345098
v -4.260116 1.463113 5.822901
v -4.510116 1.463113 5.822901
v -4.510116 1.463113 8.345098
v -4.510116 1.463113 8.345098
v -4.510116 -0.03601965 8.345098
v -4.260116 -0.03601965 8.345098
v -4.260116 1.463113 8.345098
v -4.260116 1.463113 5.822901
v -4.260116 -0.03601944 5.822901
v -4.510116 -0.03601944 5.822901
v -4.510116 1.463113 5.822901
v -4.510116 -0.03601965 8.345098
v -4.510116 -0.03601944 5.822901
v -4.260116 -0.03601944 5.822901
v -4.260116 -0.03601965 8.345098
v -4.160116 -0.03601965 8.345098
v -4.160116 -0.03601962 8.477845
v -4.260116 -0.03601962 8.477845
v -4.160116 -0.03601944 5.822901
v -4.260116 -0.0360195 5.690154
v -4.160116 -0.0360195 5.690154
v -4.610116 -0.03601944 5.822901
v -4.610116 -0.0360195 5.690154
v -4.510116 -0.0360195 5.690154
v -4.610116 -0.03601965 8.345098
v -4.510116 -0.03601962 8.477845
v -4.610116 -0.03601962 8.477845
v -4.160116 -0.07547238 8.345098
v -4.160116 -0.03601965 8.345098
v -4.160116 -0.03601944 5.822901
v -4.160116 -0.07547221 5.822901
v -4.160116 -0.07547235 8.477845
v -4.160116 -0.03601962 8.477845
v -4.160116 -0.07547224 5.690154
v -4.160116 -0.0360195 5.690154
v -4.610116 -0.03601944 5.822901
v -4.610116 -0.07547221 5.822901
v -4.610116 -0.07547224 5.690154
v -4.610116 -0.0360195 5.690154
v -4.610116 -0.03601965 8.345098
v -4.610116 -0.07547238 8.345098
v -4.610116 -0.07547235 8.477845
v -4.610116 -0.03601962 8.477845
v -4.260116 -0.03601962 8.477845
v -4.160116 -0.03601962 8.477845
v -4.160116 -0.07547235 8.477845
v -4.260116 -0.07547235 8.477845
v -4.260116 -0.07547235 8.477845
v -4.160116 -0.07547235 8.477845
v -4.160116 -0.07547238 8.345098
v -4.260116 -0.07547238 8.345098
v -4.160116 -0.07547221 5.822901
v -4.260116 -0.07547221 5.822901
v -4.160116 -0.07547224 5.690154
v -4.260116 -0.07547224 5.690154
v -4.260116 -0.07547224 5.690154
v -4.160116 -0.07547224 5.690154
v -4.160116 -0.0360195 5.690154
v -4.260116 -0.0360195 5.690154
v -4.510116 -0.0360195 5.690154
v -4.610116 -0.0360195 5.690154
v -4.610116 -0.07547224 5.690154
v -4.510116 -0.07547224 5.690154
v -4.510116 -0.07547224 5.690154
v -4.610116 -0.07547224 5.690154
v -4.610116 -0.07547221 5.822901
v -4.510116 -0.07547221 5.822901
v -4.610116 -0.07547238 8.345098
v -4.510116 -0.07547238 8.345098
v -4.610116 -0.07547235 8.477845
v -4.510116 -0.07547235 8.477845
v -4.510116 -0.07547235 8.477845
v -4.610116 -0.07547235 8.477845
v -4.610116 -0.03601962 8.477845
v -4.510116 -0.03601962 8.477845
vn 0 -0.2679565 -1.171275E-08
vn 0 -0.2679565 -1.171275E-08
vn 0 -0.2679565 -1.171275E-08
vn 0 -0.2679565 -1.171275E-08
vn 0 -0.2679565 -1.171275E-08
vn 0 -0.2679565 -1.171275E-08
vn 0 -0.2679565 -1.171275E-08
vn 0 -0.2679565 -1.171275E-08
vn 0 0.2679565 1.171275E-08
vn 0 0.2679565 1.171275E-08
vn 0 0.2679565 1.171275E-08
vn 0 0.2679565 1.171275E-08
vn 0 0.2679565 1.171275E-08
vn 0 0.2679565 1.171275E-08
vn 0 0.2679565 1.171275E-08
vn 0 0.2679565 1.171275E-08
vn 0 -3.941005E-08 0.9015968
vn 0 -3.941005E-08 0.9015968
vn 0 -3.941005E-08 0.9015968
vn 0 -3.941005E-08 0.9015968
vn 0 -3.941005E-08 0.9015968
vn 0 -3.941005E-08 0.9015968
vn 0 -3.941005E-08 0.9015968
vn 0 -3.941005E-08 0.9015968
vn 0 -3.941005E-08 0.9015968
vn 0 -3.941005E-08 0.9015968
vn 0.3395916 0 0
vn 0.3395916 0 0
vn 0.3395916 0 0
vn 0.3395916 0 0
vn 0.3395916 0 0
vn 0.3395916 0 0
vn 0.3395916 0 0
vn 0.3395916 0 0
vn 0.3395916 0 0
vn 0.3395916 0 0
vn 0.3395916 0 0
vn 0.3395916 0 0
vn 0.3395916 0 0
vn 0.3395916 0 0
vn 0.3395916 0 0
vn 0.3395916 0 0
vn 0.3395916 0 0
vn 0.3395916 0 0
vn 0.3395916 0 0
vn 0.3395916 0 0
vn 0.3395916 0 0
vn 0.3395916 0 0
vn 0.3395916 0 0
vn 0.3395916 0 0
vn -0.3395916 0 0
vn -0.3395916 0 0
vn -0.3395916 0 0
vn -0.3395916 0 0
vn -0.3395916 0 0
vn -0.3395916 0 0
vn -0.3395916 0 0
vn -0.3395916 0 0
vn -0.3395916 0 0
vn -0.3395916 0 0
vn -0.3395916 0 0
vn -0.3395916 0 0
vn -0.3395916 0 0
vn -0.3395916 0 0
vn -0.3395916 0 0
vn -0.3395916 0 0
vn -0.3395916 0 0
vn -0.3395916 0 0
vn -0.3395916 0 0
vn -0.3395916 0 0
vn -0.3395916 0 0
vn -0.3395916 0 0
vn -0.3395916 0 0
vn -0.3395916 0 0
vn 0 3.941005E-08 -0.9015968
vn 0 3.941005E-08 -0.9015968
vn 0 3.941005E-08 -0.9015968
vn 0 3.941005E-08 -0.9015968
vn 0 3.941005E-08 -0.9015968
vn 0 3.941005E-08 -0.9015968
vn 0 3.941005E-08 -0.9015968
vn 0 3.941005E-08 -0.9015968
vn 0 3.941005E-08 -0.9015968
vn 0 3.941005E-08 -0.9015968
vn 0 -0.2679565 -1.171275E-08
vn 0 -0.2679565 -1.171275E-08
vn 0 -0.2679565 -1.171275E-08
vn 0 -0.2679565 -1.171275E-08
vn 0 3.941005E-08 -0.9015968
vn 0 3.941005E-08 -0.9015968
vn 0 3.941005E-08 -0.9015968
vn 0 3.941005E-08 -0.9015968
vn 0 -3.941005E-08 0.9015968
vn 0 -3.941005E-08 0.9015968
vn 0 -3.941005E-08 0.9015968
vn 0 -3.941005E-08 0.9015968
vn 0 0.2679565 1.171275E-08
vn 0 0.2679565 1.171275E-08
vn 0 0.2679565 1.171275E-08
vn 0 0.2679565 1.171275E-08
vn 0 0.2679565 1.171275E-08
vn 0 0.2679565 1.171275E-08
vn 0 0.2679565 1.171275E-08
vn 0 0.2679565 1.171275E-08
vn 0 0.2679565 1.171275E-08
vn 0 0.2679565 1.171275E-08
vn 0 0.2679565 1.171275E-08
vn 0 0.2679565 1.171275E-08
vn 0 0.2679565 1.171275E-08
vn 0 0.2679565 1.171275E-08
vn 0 0.2679565 1.171275E-08
vn 0 0.2679565 1.171275E-08
vn 0.3395916 0 0
vn 0.3395916 0 0
vn 0.3395916 0 0
vn 0.3395916 0 0
vn 0.3395916 0 0
vn 0.3395916 0 0
vn 0.3395916 0 0
vn 0.3395916 0 0
vn -0.3395916 0 0
vn -0.3395916 0 0
vn -0.3395916 0 0
vn -0.3395916 0 0
vn -0.3395916 0 0
vn -0.3395916 0 0
vn -0.3395916 0 0
vn -0.3395916 0 0
vn 0 -3.941005E-08 0.9015968
vn 0 -3.941005E-08 0.9015968
vn 0 -3.941005E-08 0.9015968
vn 0 -3.941005E-08 0.9015968
vn 0 -0.2679565 -1.171275E-08
vn 0 -0.2679565 -1.171275E-08
vn 0 -0.2679565 -1.171275E-08
vn 0 -0.2679565 -1.171275E-08
vn 0 -0.2679565 -1.171275E-08
vn 0 -0.2679565 -1.171275E-08
vn 0 -0.2679565 -1.171275E-08
vn 0 -0.2679565 -1.171275E-08
vn 0 3.941005E-08 -0.9015968
vn 0 3.941005E-08 -0.9015968
vn 0 3.941005E-08 -0.9015968
vn 0 3.941005E-08 -0.9015968
vn 0 3.941005E-08 -0.9015968
vn 0 3.941005E-08 -0.9015968
vn 0 3.941005E-08 -0.9015968
vn 0 3.941005E-08 -0.9015968
vn 0 -0.2679565 -1.171275E-08
vn 0 -0.2679565 -1.171275E-08
vn 0 -0.2679565 -1.171275E-08
vn 0 -0.2679565 -1.171275E-08
vn 0 -0.2679565 -1.171275E-08
vn 0 -0.2679565 -1.171275E-08
vn 0 -0.2679565 -1.171275E-08
vn 0 -0.2679565 -1.171275E-08
vn 0 -3.941005E-08 0.9015968
vn 0 -3.941005E-08 0.9015968
vn 0 -3.941005E-08 0.9015968
vn 0 -3.941005E-08 0.9015968
vt 3.5625 2.137501
vt 3.4375 2.137501
vt 3.4375 2.262501
vt 3.5625 2.262501
vt 3.5625 2.737501
vt 3.4375 2.737501
vt 3.437499 2.862501
vt 3.562499 2.862501
vt -2.5625 2.137501
vt -2.5625 2.262501
vt -2.4375 2.262501
vt -2.4375 2.137501
vt -2.4375 2.737501
vt -2.5625 2.737501
vt -2.437499 2.862501
vt -2.562499 2.862501
vt -2.4375 0.1499546
vt -2.5625 0.1499546
vt -2.5625 0.2500001
vt -2.4375 0.2500001
vt -2.4375 0.275
vt -2.5625 0.275
vt -2.4375 1.224954
vt -2.5625 1.224954
vt -2.4375 1.349954
vt -2.5625 1.349954
vt 2.262501 0.25
vt 2.262501 0.1499546
vt 2.137501 0.1499546
vt 2.137501 0.2500001
vt 2.237501 0.25
vt 2.737501 0.2500001
vt 2.737501 0.1499546
vt 2.762501 0.2500001
vt 2.862501 0.25
vt 2.862501 0.1499546
vt 2.862501 0.2750001
vt 2.762501 0.2750001
vt 2.862501 1.224954
vt 2.737501 0.2750001
vt 2.737501 1.224954
vt 2.862501 1.349954
vt 2.737501 1.349954
vt 2.262501 1.349954
vt 2.262501 1.224954
vt 2.137501 1.224954
vt 2.137501 1.349954
vt 2.137501 0.275
vt 2.237501 0.275
vt 2.262501 0.275
vt -1.137501 0.2500001
vt -1.137501 0.1499546
vt -1.262501 0.1499546
vt -1.262501 0.25
vt -1.237501 0.25
vt -1.737501 0.1499546
vt -1.737501 0.2500001
vt -1.862501 0.1499546
vt -1.762501 0.2500001
vt -1.862501 0.25
vt -1.137501 0.275
vt -1.237501 0.275
vt -1.137501 1.224954
vt -1.262501 1.224954
vt -1.137501 1.349954
vt -1.262501 1.349954
vt -1.737501 1.349954
vt -1.737501 1.224954
vt -1.862501 1.224954
vt -1.862501 1.349954
vt -1.262501 0.275
vt -1.737501 0.2750001
vt -1.862501 0.2750001
vt -1.762501 0.2750001
vt 3.562499 0.1499546
vt 3.437499 0.1499546
vt 3.437499 0.25
vt 3.562499 0.25
vt 3.562499 0.2750001
vt 3.437499 0.2750001
vt 3.562499 1.224954
vt 3.437499 1.224954
vt 3.562499 1.349954
vt 3.437499 1.349954
vt 3.4375 2.262501
vt 3.4375 2.737501
vt 3.5625 2.737501
vt 3.5625 2.262501
vt 3.5625 1.224954
vt 3.5625 0.275
vt 3.4375 0.275
vt 3.4375 1.224954
vt -2.4375 1.224954
vt -2.4375 0.2750001
vt -2.5625 0.2750001
vt -2.5625 1.224954
vt -2.5625 2.262501
vt -2.5625 2.737501
vt -2.4375 2.737501
vt -2.4375 2.262501
vt -2.3875 2.262501
vt -2.3875 2.237501
vt -2.4375 2.237501
vt -2.387499 2.737501
vt -2.4375 2.762501
vt -2.387499 2.762501
vt -2.612499 2.737501
vt -2.612499 2.762501
vt -2.562499 2.762501
vt -2.612499 2.262501
vt -2.5625 2.237501
vt -2.612499 2.237501
vt 2.262501 0.25
vt 2.262501 0.275
vt 2.737501 0.2750001
vt 2.737501 0.2500001
vt 2.237501 0.25
vt 2.237501 0.275
vt 2.762501 0.2500001
vt 2.762501 0.2750001
vt -1.737501 0.2750001
vt -1.737501 0.2500001
vt -1.762501 0.2500001
vt -1.762501 0.2750001
vt -1.262501 0.275
vt -1.262501 0.25
vt -1.237501 0.25
vt -1.237501 0.275
vt -2.4375 0.275
vt -2.3875 0.275
vt -2.3875 0.25
vt -2.4375 0.25
vt 3.4375 2.237501
vt 3.3875 2.237501
vt 3.3875 2.262501
vt 3.4375 2.262501
vt 3.387499 2.737501
vt 3.4375 2.737501
vt 3.387499 2.762501
vt 3.4375 2.762501
vt 3.4375 0.2500001
vt 3.387499 0.2500001
vt 3.387499 0.2750001
vt 3.4375 0.2750001
vt 3.562499 0.2750001
vt 3.612499 0.2750001
vt 3.612499 0.2500001
vt 3.562499 0.2500001
vt 3.562499 2.762501
vt 3.612499 2.762501
vt 3.612499 2.737501
vt 3.5625 2.737501
vt 3.612499 2.262501
vt 3.5625 2.262501
vt 3.612499 2.237501
vt 3.5625 2.237501
vt -2.5625 0.25
vt -2.612499 0.25
vt -2.612499 0.275
vt -2.5625 0.275
usemtl Grey
f 3/3/3 2/2/2 1/1/1
f 4/4/4 3/3/3 1/1/1
f 4/4/4 5/5/5 3/3/3
f 5/5/5 6/6/6 3/3/3
f 7/7/7 6/6/6 5/5/5
f 8/8/8 7/7/7 5/5/5
f 11/11/11 10/10/10 9/9/9
f 12/12/12 11/11/11 9/9/9
f 11/11/11 13/13/13 10/10/10
f 13/13/13 14/14/14 10/10/10
f 13/13/13 15/15/15 14/14/14
f 15/15/15 16/16/16 14/14/14
f 19/19/19 18/18/18 17/17/17
f 20/20/20 19/19/19 17/17/17
f 19/19/19 20/20/20 21/21/21
f 22/22/22 19/19/19 21/21/21
f 22/22/22 21/21/21 23/23/23
f 24/24/24 22/22/22 23/23/23
f 24/24/24 23/23/23 25/25/25
f 26/26/26 24/24/24 25/25/25
f 29/29/29 28/28/28 27/27/27
f 27/27/27 30/30/30 29/29/29
f 27/27/27 31/31/31 30/30/30
f 32/32/32 27/27/27 28/28/28
f 33/33/33 32/32/32 28/28/28
f 34/34/34 32/32/32 33/33/33
f 35/35/35 34/34/34 33/33/33
f 33/33/33 36/36/36 35/35/35
f 34/34/34 35/35/35 37/37/37
f 38/38/38 34/34/34 37/37/37
f 38/38/38 37/37/37 39/39/39
f 39/39/39 40/40/40 38/38/38
f 39/39/39 41/41/41 40/40/40
f 41/41/41 39/39/39 42/42/42
f 43/43/43 41/41/41 42/42/42
f 41/41/41 43/43/43 44/44/44
f 45/45/45 41/41/41 44/44/44
f 46/46/46 45/45/45 44/44/44
f 47/47/47 46/46/46 44/44/44
f 45/45/45 46/46/46 48/48/48
f 45/45/45 48/48/48 49/49/49
f 49/49/49 50/50/50 45/45/45
f 31/31/31 49/49/49 48/48/48
f 30/30/30 31/31/31 48/48/48
f 53/53/53 52/52/52 51/51/51
f 51/51/51 54/54/54 53/53/53
f 51/51/51 55/55/55 54/54/54
f 56/56/56 53/53/53 54/54/54
f 57/57/57 56/56/56 54/54/54
f 58/58/58 56/56/56 57/57/57
f 57/57/57 59/59/59 58/58/58
f 59/59/59 60/60/60 58/58/58
f 55/55/55 51/51/51 61/61/61
f 62/62/62 55/55/55 61/61/61
f 62/62/62 61/61/61 63/63/63
f 62/62/62 63/63/63 64/64/64
f 64/64/64 63/63/63 65/65/65
f 66/66/66 64/64/64 65/65/65
f 66/66/66 67/67/67 64/64/64
f 67/67/67 68/68/68 64/64/64
f 69/69/69 68/68/68 67/67/67
f 70/70/70 69/69/69 67/67/67
f 64/64/64 71/71/71 62/62/62
f 72/72/72 68/68/68 69/69/69
f 72/72/72 69/69/69 73/73/73
f 60/60/60 59/59/59 73/73/73
f 73/73/73 74/74/74 72/72/72
f 59/59/59 74/74/74 73/73/73
f 77/77/77 76/76/76 75/75/75
f 78/78/78 77/77/77 75/75/75
f 77/77/77 78/78/78 79/79/79
f 80/80/80 77/77/77 79/79/79
f 80/80/80 79/79/79 81/81/81
f 82/82/82 80/80/80 81/81/81
f 82/82/82 81/81/81 83/83/83
f 84/84/84 82/82/82 83/83/83
f 87/87/87 86/86/86 85/85/85
f 88/88/88 87/87/87 85/85/85
f 91/91/91 90/90/90 89/89/89
f 92/92/92 91/91/91 89/89/89
f 95/95/95 94/94/94 93/93/93
f 96/96/96 95/95/95 93/93/93
f 99/99/99 98/98/98 97/97/97
f 100/100/100 99/99/99 97/97/97
f 100/100/100 101/101/101 99/99/99
f 102/102/102 101/101/101 100/100/100
f 103/103/103 102/102/102 100/100/100
f 101/101/101 104/104/104 99/99/99
f 99/99/99 104/104/104 105/105/105
f 104/104/104 106/106/106 105/105/105
f 98/98/98 107/107/107 97/97/97
f 108/108/108 107/107/107 98/98/98
f 109/109/109 108/108/108 98/98/98
f 107/107/107 110/110/110 97/97/97
f 97/97/97 110/110/110 111/111/111
f 110/110/110 112/112/112 111/111/111
f 115/115/115 114/114/114 113/113/113
f 116/116/116 115/115/115 113/113/113
f 117/117/117 113/113/113 114/114/114
f 118/118/118 117/117/117 114/114/114
f 116/116/116 119/119/119 115/115/115
f 119/119/119 120/120/120 115/115/115
f 123/123/123 122/122/122 121/121/121
f 124/124/124 123/123/123 121/121/121
f 121/121/121 122/122/122 125/125/125
f 122/122/122 126/126/126 125/125/125
f 126/126/126 127/127/127 125/125/125
f 127/127/127 128/128/128 125/125/125
f 131/131/131 130/130/130 129/129/129
f 132/132/132 131/131/131 129/129/129
f 135/135/135 134/134/134 133/133/133
f 136/136/136 135/135/135 133/133/133
f 137/137/137 135/135/135 136/136/136
f 138/138/138 137/137/137 136/136/136
f 139/139/139 137/137/137 138/138/138
f 140/140/140 139/139/139 138/138/138
f 143/143/143 142/142/142 141/141/141
f 144/144/144 143/143/143 141/141/141
f 147/147/147 146/146/146 145/145/145
f 148/148/148 147/147/147 145/145/145
f 151/151/151 150/150/150 149/149/149
f 152/152/152 151/151/151 149/149/149
f 153/153/153 151/151/151 152/152/152
f 154/154/154 153/153/153 152/152/152
f 155/155/155 153/153/153 154/154/154
f 156/156/156 155/155/155 154/154/154
f 159/159/159 158/158/158 157/157/157
f 160/160/160 159/159/159 157/157/157
